<svg id="Layer_1" data-name="Layer 1" xmlns="http://www.w3.org/2000/svg" viewBox="0 0 491 361" preserveAspectRatio="xMidYMid slice">
  <defs><style>.cls-1{fill:#f9f9f9;}.cls-2{fill:#4285f4;}.cls-3{fill:silver;}.cls-4{fill:#34a853;}.cls-5{fill:#fabb05;}.cls-6{fill:#e94235;}</style></defs>
  <title>YIS Desktop</title>
  <path class="cls-1" d="M5.64,65.68A11.34,11.34,0,0,0,4,59.86a11.85,11.85,0,0,0-4-4V78.52A38.34,38.34,0,0,0,3.79,73.4,15.13,15.13,0,0,0,5.64,65.68Z"/><path class="cls-1" d="M7.06,301.23A24.26,24.26,0,0,0,13.75,291a42.09,42.09,0,0,0,2.37-14.52A42.11,42.11,0,0,0,13.75,262a24.28,24.28,0,0,0-6.69-10.24A14.87,14.87,0,0,0,0,248.25v56.44A14.85,14.85,0,0,0,7.06,301.23Z"/><path class="cls-1" d="M104.15,356.93a24.28,24.28,0,0,0-6.69-10.24,15.7,15.7,0,0,0-20.38,0,24.26,24.26,0,0,0-6.69,10.24A36.34,36.34,0,0,0,69.18,361h36.18A36.44,36.44,0,0,0,104.15,356.93Z"/><path class="cls-1" d="M414.55,356.93a24.28,24.28,0,0,0-6.69-10.24,15.7,15.7,0,0,0-20.38,0,24.26,24.26,0,0,0-6.69,10.24,36.34,36.34,0,0,0-1.21,4.07h36.18A36.39,36.39,0,0,0,414.55,356.93Z"/><path class="cls-1" d="M166.44,356.93a24.28,24.28,0,0,0-6.69-10.24,15.7,15.7,0,0,0-20.38,0,24.26,24.26,0,0,0-6.69,10.24,36.28,36.28,0,0,0-1.21,4.07h36.18A36.44,36.44,0,0,0,166.44,356.93Z"/><path class="cls-1" d="M483.37,301.23a14.84,14.84,0,0,0,7.63,3.56V248.16a14.86,14.86,0,0,0-7.63,3.56A24.26,24.26,0,0,0,476.68,262a42.08,42.08,0,0,0-2.37,14.52h0A42.06,42.06,0,0,0,476.68,291,24.25,24.25,0,0,0,483.37,301.23Z"/><polygon class="cls-1" points="465.2 349 464.79 349 456.61 361 465.2 361 465.2 349"/><path class="cls-1" d="M352.26,356.93a24.28,24.28,0,0,0-6.69-10.24,15.7,15.7,0,0,0-20.38,0,24.26,24.26,0,0,0-6.69,10.24,36.28,36.28,0,0,0-1.21,4.07h36.18A36.44,36.44,0,0,0,352.26,356.93Z"/><path class="cls-1" d="M343.79,2.94a14.66,14.66,0,0,0,2.06,7.67,15,15,0,0,0,5.61,5.46,15.33,15.33,0,0,0,7.67,2,15.05,15.05,0,0,0,7.62-2,15.14,15.14,0,0,0,5.56-5.46,14.68,14.68,0,0,0,2.06-7.67A15.26,15.26,0,0,0,374.08,0h-30A15.28,15.28,0,0,0,343.79,2.94Z"/><polygon class="cls-1" points="150.8 59.8 150.39 59.8 127.02 94.09 150.8 94.09 150.8 59.8"/><path class="cls-1" d="M470.46,0a36.33,36.33,0,0,0,1.21,4.07,24.25,24.25,0,0,0,6.69,10.24,15,15,0,0,0,10.19,3.76,16.89,16.89,0,0,0,2.44-.18V0Z"/><path class="cls-1" d="M194.77,251.71a15.7,15.7,0,0,0-20.38,0A24.26,24.26,0,0,0,167.69,262a45.67,45.67,0,0,0,0,29,24.24,24.24,0,0,0,6.69,10.24,15.7,15.7,0,0,0,20.38,0A24.26,24.26,0,0,0,201.46,291a45.67,45.67,0,0,0,0-29A24.28,24.28,0,0,0,194.77,251.71Z"/><path class="cls-1" d="M479.9,205.26A15,15,0,0,0,490.09,209c.31,0,.61,0,.91,0V152c-.3,0-.6,0-.91,0a15,15,0,0,0-10.19,3.76A24.26,24.26,0,0,0,473.2,166a42.08,42.08,0,0,0-2.37,14.52h0A42.06,42.06,0,0,0,473.2,195,24.25,24.25,0,0,0,479.9,205.26Z"/><path class="cls-1" d="M65,282.5a15.68,15.68,0,0,0-10.55-3.66,15.87,15.87,0,0,0-10.6,3.66,11.66,11.66,0,0,0-4.32,9.32,11.88,11.88,0,0,0,4.32,9.52A15.87,15.87,0,0,0,54.42,305,15.68,15.68,0,0,0,65,301.34a11.94,11.94,0,0,0,4.27-9.52A11.72,11.72,0,0,0,65,282.5Z"/><path class="cls-1" d="M421.09,301.23a15.7,15.7,0,0,0,20.38,0A24.26,24.26,0,0,0,448.16,291a42.1,42.1,0,0,0,2.37-14.52h0A42.11,42.11,0,0,0,448.16,262a24.28,24.28,0,0,0-6.69-10.24,15.7,15.7,0,0,0-20.38,0A24.26,24.26,0,0,0,414.39,262,42.08,42.08,0,0,0,412,276.47h0A42.06,42.06,0,0,0,414.39,291,24.24,24.24,0,0,0,421.09,301.23Z"/><path class="cls-1" d="M45.41,267.52a13,13,0,0,0,9,3.19,12.79,12.79,0,0,0,9-3.19,10.76,10.76,0,0,0,3.5-8.34A10.22,10.22,0,0,0,63.32,251a13.23,13.23,0,0,0-8.91-3,13.38,13.38,0,0,0-9,3,10.22,10.22,0,0,0-3.55,8.19A10.68,10.68,0,0,0,45.41,267.52Z"/><path class="cls-1" d="M474.52,100.93a48.69,48.69,0,0,1-3.45-18.69,48.7,48.7,0,0,1,3.45-18.68,31.25,31.25,0,0,1,9.83-13.28A23.28,23.28,0,0,1,491,46.71V26.29c-.8.07-1.61.12-2.44.12a23.76,23.76,0,0,1-14.77-4.89A31.07,31.07,0,0,1,463.9,8.24,44.24,44.24,0,0,1,461.44,0H437.67L421.33,16.43h33.25v8.34H410.11V16q3.19-3.19,12.66-12.82L425.91,0h-43a23.59,23.59,0,0,1,.18,2.84,21.88,21.88,0,0,1-3.29,11.58,25.45,25.45,0,0,1-8.8,8.7,22.77,22.77,0,0,1-11.89,3.29A23.34,23.34,0,0,1,346.62,23a24.11,24.11,0,0,1-8.54-8.8,22.88,22.88,0,0,1-3-11.38A27,27,0,0,1,335.18,0h-10V24.77H316.4V0H293.89a44.3,44.3,0,0,1-2.46,8.24,31.09,31.09,0,0,1-9.88,13.28,24.76,24.76,0,0,1-29.55,0,31.06,31.06,0,0,1-9.88-13.28A44.23,44.23,0,0,1,239.67,0H215.9L199.55,16.43h33.25v8.34H188.33V16Q191.52,12.82,201,3.2L204.13,0H141.46l-14.3,26.41-7.72-4L131.76,0h-25V24.77H98V0H75.51a44.3,44.3,0,0,1-2.46,8.24,31.09,31.09,0,0,1-9.88,13.28A23.76,23.76,0,0,1,48.4,26.41a23.76,23.76,0,0,1-14.77-4.89A31.07,31.07,0,0,1,23.75,8.24,44.22,44.22,0,0,1,21.29,0H0V16.43H14.43v8.34H0V46.48a21,21,0,0,1,3.94,1.69,20.47,20.47,0,0,1,7.77,7.41,19.08,19.08,0,0,1,2.78,10q0,10.81-11.32,22.34L0,91.09v18H15.32v8.34H0V239.81a23.27,23.27,0,0,1,11.69,4.69,31.28,31.28,0,0,1,9.83,13.28A48.73,48.73,0,0,1,25,276.47a48.72,48.72,0,0,1-3.45,18.69,31.09,31.09,0,0,1-9.88,13.28A23.45,23.45,0,0,1,0,313.13V361H42.54a16.29,16.29,0,0,0,1.08-6.13,11.34,11.34,0,0,0-1.6-5.82,12,12,0,0,0-4.63-4.43,14.66,14.66,0,0,0-7.26-1.7,12.25,12.25,0,0,0-8.91,3.24,15.43,15.43,0,0,0-4.38,7.05l-8-3.19a22.86,22.86,0,0,1,3.71-6.84,22.61,22.61,0,0,1,7.21-6.08,21.66,21.66,0,0,1,10.71-2.52,23.19,23.19,0,0,1,11.48,2.78,20.47,20.47,0,0,1,7.77,7.41,19.08,19.08,0,0,1,2.78,10,22.07,22.07,0,0,1-.93,6.23h8.62a44.25,44.25,0,0,1,2.46-8.24,31.25,31.25,0,0,1,9.83-13.28,24.91,24.91,0,0,1,29.65,0,31.28,31.28,0,0,1,9.83,13.28,44.33,44.33,0,0,1,2.45,8.24h8.06a44.25,44.25,0,0,1,2.46-8.24,31.25,31.25,0,0,1,9.83-13.28,24.91,24.91,0,0,1,29.65,0,31.28,31.28,0,0,1,9.83,13.28,44.33,44.33,0,0,1,2.45,8.24H187l3.23-24.77h36.45v8.34H197.43L195.28,361h95.36a16.29,16.29,0,0,0,1.08-6.13,11.34,11.34,0,0,0-1.6-5.82,12,12,0,0,0-4.63-4.43,14.66,14.66,0,0,0-7.26-1.7,12.25,12.25,0,0,0-8.91,3.24,15.43,15.43,0,0,0-4.38,7.05l-8-3.19a22.85,22.85,0,0,1,3.71-6.84,22.61,22.61,0,0,1,7.21-6.08,21.66,21.66,0,0,1,10.71-2.52A23.19,23.19,0,0,1,290,337.37a20.46,20.46,0,0,1,7.77,7.41,19.07,19.07,0,0,1,2.78,10,22.07,22.07,0,0,1-.93,6.23h8.62a44.27,44.27,0,0,1,2.46-8.24,31.25,31.25,0,0,1,9.83-13.28,24.91,24.91,0,0,1,29.65,0A31.28,31.28,0,0,1,360,352.76a44.34,44.34,0,0,1,2.45,8.24h8.06a44.27,44.27,0,0,1,2.46-8.24,31.25,31.25,0,0,1,9.83-13.28,24.91,24.91,0,0,1,29.65,0,31.27,31.27,0,0,1,9.83,13.28,44.32,44.32,0,0,1,2.45,8.24h22.85l16.75-24.77h9.47V361H491V313.2a23.48,23.48,0,0,1-12.21-4.76,31.07,31.07,0,0,1-9.88-13.28,48.69,48.69,0,0,1-3.45-18.69h0a48.7,48.7,0,0,1,3.45-18.68,31.25,31.25,0,0,1,9.83-13.28A23.32,23.32,0,0,1,491,239.75V217.32c-.3,0-.6,0-.91,0a23.76,23.76,0,0,1-14.77-4.89,31.07,31.07,0,0,1-9.88-13.28A48.69,48.69,0,0,1,462,180.5h0a48.7,48.7,0,0,1,3.45-18.68,31.25,31.25,0,0,1,9.83-13.28,23.69,23.69,0,0,1,14.82-4.89c.31,0,.61,0,.91,0V117.77a23.68,23.68,0,0,1-6.6-3.55A31.06,31.06,0,0,1,474.52,100.93ZM378.71,91a13.73,13.73,0,0,0-5.46-4.68,16.88,16.88,0,0,0-7.57-1.7h-6.07V76.48h5.46a14.1,14.1,0,0,0,9.47-3.24,10.73,10.73,0,0,0,3.81-8.6,9.67,9.67,0,0,0-3.71-7.93,14.14,14.14,0,0,0-9.16-3q-5.35,0-8.39,2.78a15.83,15.83,0,0,0-4.38,6.8l-8-3.4a22.49,22.49,0,0,1,7.16-10q5.3-4.48,13.64-4.48a24.52,24.52,0,0,1,11.12,2.47,19.22,19.22,0,0,1,7.77,6.9,18,18,0,0,1,2.83,9.88,15.29,15.29,0,0,1-2.78,9.27,19.91,19.91,0,0,1-6.9,6v.41a20.42,20.42,0,0,1,8.65,6.64,17,17,0,0,1,3.4,10.55,20.3,20.3,0,0,1-3.14,11.12,21.63,21.63,0,0,1-8.55,7.72A25.6,25.6,0,0,1,366,119.11a24.27,24.27,0,0,1-9.06-1.85,23.59,23.59,0,0,1-8.39-5.82,23,23,0,0,1-5.41-9.94l7.93-3.29a17.79,17.79,0,0,0,5.61,9.27,14.12,14.12,0,0,0,9.32,3.29,16.14,16.14,0,0,0,7.31-1.7,13.68,13.68,0,0,0,5.4-4.74,12,12,0,0,0,2-6.74A11.56,11.56,0,0,0,378.71,91ZM325.19,48.39h5.35v67.72h-8.42V60.17l8.42-6L310.24,68.69l-4.36-6.44Zm-74.5,15.89a30.05,30.05,0,0,1,9.45-12.77,24,24,0,0,1,28.51,0,30.08,30.08,0,0,1,9.45,12.77,46.86,46.86,0,0,1,3.32,18,46.85,46.85,0,0,1-3.32,18,29.9,29.9,0,0,1-9.5,12.77,23.81,23.81,0,0,1-28.41,0,29.87,29.87,0,0,1-9.5-12.77,46.82,46.82,0,0,1-3.32-18A46.83,46.83,0,0,1,250.69,64.28ZM199,108.09v-.4q3.07-3.07,12.18-12.32t12.67-13.12a54.4,54.4,0,0,0,6.83-8.51,14.54,14.54,0,0,0,1.78-7.42,10.91,10.91,0,0,0-1.53-5.59,11.58,11.58,0,0,0-4.46-4.26,14.1,14.1,0,0,0-7-1.63,11.78,11.78,0,0,0-8.56,3.12,14.84,14.84,0,0,0-4.21,6.78L199,61.66a22,22,0,0,1,3.56-6.58,21.74,21.74,0,0,1,6.93-5.84,20.83,20.83,0,0,1,10.3-2.43,22.3,22.3,0,0,1,11,2.67,19.68,19.68,0,0,1,7.47,7.13,18.34,18.34,0,0,1,2.67,9.6q0,10.39-10.89,21.48l-20.29,20.39h32v8H199ZM102.1,47h5.56v70.42H98.91V59.29L107.66,53,86.56,68.15,82,61.45ZM24.63,63.56a31.25,31.25,0,0,1,9.83-13.28,23.69,23.69,0,0,1,14.82-4.89,23.7,23.7,0,0,1,14.83,4.89,31.28,31.28,0,0,1,9.83,13.28,48.73,48.73,0,0,1,3.45,18.68,48.72,48.72,0,0,1-3.45,18.69,31.09,31.09,0,0,1-9.88,13.28,23.76,23.76,0,0,1-14.77,4.89,23.76,23.76,0,0,1-14.77-4.89,31.06,31.06,0,0,1-9.88-13.28,48.69,48.69,0,0,1-3.45-18.69A48.7,48.7,0,0,1,24.63,63.56ZM7.31,215.71V207Q10.5,203.77,20,194.14T33.15,180.5a56.55,56.55,0,0,0,7.1-8.85,15.12,15.12,0,0,0,1.85-7.72,11.34,11.34,0,0,0-1.6-5.82,12,12,0,0,0-4.63-4.43,14.66,14.66,0,0,0-7.26-1.7,12.25,12.25,0,0,0-8.91,3.24,15.43,15.43,0,0,0-4.38,7.05l-8-3.19A22.85,22.85,0,0,1,11,152.24a22.61,22.61,0,0,1,7.21-6.08,21.66,21.66,0,0,1,10.71-2.52,23.19,23.19,0,0,1,11.48,2.78,20.47,20.47,0,0,1,7.77,7.41,19.08,19.08,0,0,1,2.78,10q0,10.81-11.32,22.34l-21.1,21.21H51.79v8.34ZM75.06,303a22,22,0,0,1-8.6,7.57,26.14,26.14,0,0,1-12,2.78,26.35,26.35,0,0,1-12.15-2.78A21.56,21.56,0,0,1,33.72,303a19.25,19.25,0,0,1-3.09-10.66,17.34,17.34,0,0,1,3.24-10.45,22.54,22.54,0,0,1,8.49-7.05v-.41a20.45,20.45,0,0,1-6.74-6.54A15.43,15.43,0,0,1,33,259.38a19,19,0,0,1,10.35-17.19,23.42,23.42,0,0,1,11.07-2.57,23.2,23.2,0,0,1,11,2.57,19,19,0,0,1,10.35,17.19,15.43,15.43,0,0,1-2.63,8.49,20.81,20.81,0,0,1-6.64,6.54v.41A22.54,22.54,0,0,1,75,281.88a17.34,17.34,0,0,1,3.24,10.45A19,19,0,0,1,75.06,303Zm25.47-90.52a24.76,24.76,0,0,1-29.55,0,31.06,31.06,0,0,1-9.88-13.28,48.69,48.69,0,0,1-3.45-18.69h0a48.7,48.7,0,0,1,3.45-18.68,31.25,31.25,0,0,1,9.83-13.28,24.91,24.91,0,0,1,29.65,0,31.28,31.28,0,0,1,9.83,13.28,48.72,48.72,0,0,1,3.45,18.68h0a48.72,48.72,0,0,1-3.45,18.69A31.09,31.09,0,0,1,100.53,212.47Zm50.07,99.22H106.13v-8.75q3.19-3.19,12.66-12.82T132,276.47a56.59,56.59,0,0,0,7.1-8.85,15.12,15.12,0,0,0,1.85-7.72,11.34,11.34,0,0,0-1.6-5.82,12,12,0,0,0-4.63-4.43,14.66,14.66,0,0,0-7.26-1.7,12.25,12.25,0,0,0-8.91,3.24,15.43,15.43,0,0,0-4.38,7.05l-8-3.19a22.85,22.85,0,0,1,3.71-6.84,22.6,22.6,0,0,1,7.21-6.08,21.66,21.66,0,0,1,10.71-2.52,23.2,23.2,0,0,1,11.48,2.78,20.47,20.47,0,0,1,7.77,7.41,19.08,19.08,0,0,1,2.78,10q0,10.81-11.32,22.34l-21.11,21.21H150.6ZM123,166.4l-4.53-6.69,20.08-14.41h5.56v70.42h-8.75V157.54l8.75-6.27Zm-6-64.07V95.74L150,47h9.47V94.09h9.06v8.24h-9.06v15.13H150.8V102.33Zm56.55,43h5.56v70.42h-8.75V157.54L158,166.4l-4.53-6.69Zm35.66,149.87a31.09,31.09,0,0,1-9.88,13.28,24.76,24.76,0,0,1-29.55,0,31.06,31.06,0,0,1-9.88-13.28,52.34,52.34,0,0,1,0-37.37,31.25,31.25,0,0,1,9.83-13.28,24.91,24.91,0,0,1,29.65,0,31.28,31.28,0,0,1,9.83,13.28,52.34,52.34,0,0,1,0,37.37Zm62.28,0a31.09,31.09,0,0,1-9.88,13.28,24.76,24.76,0,0,1-29.55,0,31.06,31.06,0,0,1-9.88-13.28,52.34,52.34,0,0,1,0-37.37A31.25,31.25,0,0,1,232,244.51a24.91,24.91,0,0,1,29.65,0,31.27,31.27,0,0,1,9.83,13.28,52.34,52.34,0,0,1,0,37.37Zm5.58-124-20,20-5.8,5.8L229.09,174.7l5.8,5.8-24.59,24.59-5.78-5.78,24.58-24.61,5.8-5.8,16.39,16.39,20-20h0l-8.6-8.59-.79-.79h24.59V180.5Zm47.7,78.49v.62l-34.18,63.11-7.72-4,32.84-59.71H279.6v-8.34h45.2Zm-9.42-33.89V207q3.19-3.19,12.66-12.82t13.18-13.64a56.59,56.59,0,0,0,7.1-8.85,15.12,15.12,0,0,0,1.85-7.72,11.34,11.34,0,0,0-1.6-5.82,12,12,0,0,0-4.63-4.43,14.66,14.66,0,0,0-7.26-1.7,12.25,12.25,0,0,0-8.91,3.24,15.43,15.43,0,0,0-4.38,7.05l-8-3.19a22.87,22.87,0,0,1,3.71-6.84,22.61,22.61,0,0,1,7.21-6.08A21.66,21.66,0,0,1,337,143.64a23.19,23.19,0,0,1,11.48,2.78,20.47,20.47,0,0,1,7.77,7.41,19.08,19.08,0,0,1,2.78,10q0,10.81-11.32,22.34l-21.1,21.21h33.25v8.34Zm81.92,96H352.83v-8.75q3.19-3.19,12.66-12.82t13.18-13.64a56.56,56.56,0,0,0,7.1-8.85,15.12,15.12,0,0,0,1.85-7.72,11.34,11.34,0,0,0-1.6-5.82,12,12,0,0,0-4.63-4.43,14.66,14.66,0,0,0-7.26-1.7,12.25,12.25,0,0,0-8.91,3.24,15.43,15.43,0,0,0-4.38,7.05l-8-3.19a22.85,22.85,0,0,1,3.71-6.84,22.61,22.61,0,0,1,7.21-6.08,21.66,21.66,0,0,1,10.71-2.52,23.19,23.19,0,0,1,11.48,2.78,20.47,20.47,0,0,1,7.77,7.41,19.08,19.08,0,0,1,2.78,10q0,10.81-11.32,22.34l-21.1,21.21H397.3Zm-3.47-94.33a23.76,23.76,0,0,1-14.77-4.89,31.06,31.06,0,0,1-9.88-13.28,52.34,52.34,0,0,1,0-37.37A31.25,31.25,0,0,1,379,148.53a24.91,24.91,0,0,1,29.65,0,31.28,31.28,0,0,1,9.83,13.28,52.33,52.33,0,0,1,0,37.37,31.09,31.09,0,0,1-9.88,13.28A23.76,23.76,0,0,1,393.83,217.36Zm65.55,59.12a48.73,48.73,0,0,1-3.45,18.69,31.09,31.09,0,0,1-9.88,13.28,24.76,24.76,0,0,1-29.55,0,31.06,31.06,0,0,1-9.88-13.28,48.69,48.69,0,0,1-3.45-18.69h0a48.7,48.7,0,0,1,3.45-18.68,31.25,31.25,0,0,1,9.83-13.28,24.91,24.91,0,0,1,29.65,0,31.28,31.28,0,0,1,9.83,13.28,48.73,48.73,0,0,1,3.45,18.68ZM431.1,166.4l-4.53-6.69,20.08-14.41h5.56v70.42h-8.75V157.54Zm34.11-48.94H420.73v-8.75q3.19-3.19,12.66-12.82t13.18-13.64a56.56,56.56,0,0,0,7.1-8.85,15.12,15.12,0,0,0,1.85-7.72,11.34,11.34,0,0,0-1.6-5.82,12,12,0,0,0-4.63-4.43,14.66,14.66,0,0,0-7.26-1.7A12.25,12.25,0,0,0,433.13,57,15.43,15.43,0,0,0,428.76,64l-8-3.19A22.85,22.85,0,0,1,424.43,54a22.61,22.61,0,0,1,7.21-6.08,21.66,21.66,0,0,1,10.71-2.52,23.19,23.19,0,0,1,11.48,2.78,20.46,20.46,0,0,1,7.77,7.41,19.07,19.07,0,0,1,2.78,10q0,10.81-11.32,22.34l-21.1,21.21H465.2Z"/><path class="cls-1" d="M413.08,180.5A42.11,42.11,0,0,0,410.71,166,24.28,24.28,0,0,0,404,155.74a15.7,15.7,0,0,0-20.38,0A24.26,24.26,0,0,0,376.94,166a45.68,45.68,0,0,0,0,29,24.24,24.24,0,0,0,6.69,10.24,15.7,15.7,0,0,0,20.38,0A24.26,24.26,0,0,0,410.71,195,42.1,42.1,0,0,0,413.08,180.5Z"/><path class="cls-1" d="M257.05,251.71a15.7,15.7,0,0,0-20.39,0A24.27,24.27,0,0,0,230,262a45.67,45.67,0,0,0,0,29,24.25,24.25,0,0,0,6.69,10.24,15.7,15.7,0,0,0,20.39,0A24.27,24.27,0,0,0,263.75,291a45.67,45.67,0,0,0,0-29A24.29,24.29,0,0,0,257.05,251.71Z"/><path class="cls-1" d="M482.29,67.73a42.08,42.08,0,0,0-2.37,14.52,42.06,42.06,0,0,0,2.37,14.52A24.25,24.25,0,0,0,489,107a15.88,15.88,0,0,0,2,1.48V56a15.91,15.91,0,0,0-2,1.48A24.26,24.26,0,0,0,482.29,67.73Z"/><path class="cls-1" d="M102.64,166A24.28,24.28,0,0,0,96,155.74a15.7,15.7,0,0,0-20.38,0A24.26,24.26,0,0,0,68.87,166a42.08,42.08,0,0,0-2.37,14.52h0A42.06,42.06,0,0,0,68.87,195a24.25,24.25,0,0,0,6.69,10.24,15.7,15.7,0,0,0,20.38,0A24.26,24.26,0,0,0,102.64,195,42.1,42.1,0,0,0,105,180.5h0A42.11,42.11,0,0,0,102.64,166Z"/><path class="cls-1" d="M39.1,107a15,15,0,0,0,10.19,3.76A15,15,0,0,0,59.48,107a24.26,24.26,0,0,0,6.69-10.24,42.1,42.1,0,0,0,2.37-14.52,42.11,42.11,0,0,0-2.37-14.52,24.28,24.28,0,0,0-6.69-10.24,15.7,15.7,0,0,0-20.38,0A24.26,24.26,0,0,0,32.4,67.73,42.08,42.08,0,0,0,30,82.25,42.06,42.06,0,0,0,32.4,96.77,24.24,24.24,0,0,0,39.1,107Z"/><path class="cls-1" d="M31.52,4.07a24.24,24.24,0,0,0,6.69,10.24A15,15,0,0,0,48.4,18.07,15,15,0,0,0,58.6,14.32,24.26,24.26,0,0,0,65.29,4.07,36.38,36.38,0,0,0,66.49,0H30.31A36.28,36.28,0,0,0,31.52,4.07Z"/><path class="cls-1" d="M249.9,4.07a24.24,24.24,0,0,0,6.69,10.24,15.7,15.7,0,0,0,20.38,0,24.26,24.26,0,0,0,6.69-10.24A36.33,36.33,0,0,0,284.87,0H248.69A36.28,36.28,0,0,0,249.9,4.07Z"/><path class="cls-1" d="M264.6,106.06a15.1,15.1,0,0,0,19.6,0,23.33,23.33,0,0,0,6.44-9.85,40.49,40.49,0,0,0,2.28-14,40.51,40.51,0,0,0-2.28-14,23.35,23.35,0,0,0-6.44-9.85,15.1,15.1,0,0,0-19.6,0,23.33,23.33,0,0,0-6.43,9.85,40.46,40.46,0,0,0-2.28,14,40.44,40.44,0,0,0,2.28,14A23.31,23.31,0,0,0,264.6,106.06Z"/><rect class="cls-2" y="16.43" width="14.43" height="8.34"/><path class="cls-3" d="M33.63,21.52A23.76,23.76,0,0,0,48.4,26.41a23.76,23.76,0,0,0,14.77-4.89A31.09,31.09,0,0,0,73.06,8.24,44.3,44.3,0,0,0,75.51,0h-9a36.38,36.38,0,0,1-1.21,4.07A24.26,24.26,0,0,1,58.6,14.32,15,15,0,0,1,48.4,18.07a15,15,0,0,1-10.19-3.76A24.24,24.24,0,0,1,31.52,4.07,36.28,36.28,0,0,1,30.31,0h-9a44.22,44.22,0,0,0,2.46,8.24A31.07,31.07,0,0,0,33.63,21.52Z"/><rect class="cls-2" x="98.03" width="8.75" height="24.77"/><polygon class="cls-3" points="127.16 26.41 141.46 0 131.76 0 119.44 22.4 127.16 26.41"/><path class="cls-3" d="M188.33,16v8.75h44.48V16.43H199.55L215.9,0H204.13L201,3.2Q191.52,12.82,188.33,16Z"/><path class="cls-4" d="M252,21.52a24.76,24.76,0,0,0,29.55,0,31.09,31.09,0,0,0,9.88-13.28A44.3,44.3,0,0,0,293.89,0h-9a36.33,36.33,0,0,1-1.21,4.07A24.26,24.26,0,0,1,277,14.32a15.7,15.7,0,0,1-20.38,0A24.24,24.24,0,0,1,249.9,4.07,36.28,36.28,0,0,1,248.69,0h-9a44.23,44.23,0,0,0,2.46,8.24A31.06,31.06,0,0,0,252,21.52Z"/><rect class="cls-3" x="316.4" width="8.75" height="24.77"/><path class="cls-3" d="M338.07,14.21a24.11,24.11,0,0,0,8.54,8.8,23.34,23.34,0,0,0,12.51,3.4A22.77,22.77,0,0,0,371,23.12a25.45,25.45,0,0,0,8.8-8.7,21.88,21.88,0,0,0,3.29-11.58A23.59,23.59,0,0,0,382.94,0h-8.86a15.26,15.26,0,0,1,.28,2.94,14.68,14.68,0,0,1-2.06,7.67,15.14,15.14,0,0,1-5.56,5.46,15.05,15.05,0,0,1-7.62,2,15.33,15.33,0,0,1-7.67-2,15,15,0,0,1-5.61-5.46,14.66,14.66,0,0,1-2.06-7.67A15.28,15.28,0,0,1,344.07,0h-8.88A27,27,0,0,0,335,2.84,22.88,22.88,0,0,0,338.07,14.21Z"/><path class="cls-5" d="M410.11,16v8.75h44.48V16.43H421.33L437.67,0H425.91l-3.14,3.2Q413.3,12.82,410.11,16Z"/><path class="cls-3" d="M473.78,21.52a23.76,23.76,0,0,0,14.77,4.89c.83,0,1.64,0,2.44-.12v-8.4a16.89,16.89,0,0,1-2.44.18,15,15,0,0,1-10.19-3.76,24.25,24.25,0,0,1-6.69-10.24A36.33,36.33,0,0,1,470.46,0h-9a44.24,44.24,0,0,0,2.46,8.24A31.07,31.07,0,0,0,473.78,21.52Z"/><path class="cls-6" d="M49.69,344.78a20.47,20.47,0,0,0-7.77-7.41,23.19,23.19,0,0,0-11.48-2.78,21.66,21.66,0,0,0-10.71,2.52,22.61,22.61,0,0,0-7.21,6.08A22.86,22.86,0,0,0,8.82,350l8,3.19a15.43,15.43,0,0,1,4.38-7.05,12.25,12.25,0,0,1,8.91-3.24,14.66,14.66,0,0,1,7.26,1.7A12,12,0,0,1,42,349.05a11.34,11.34,0,0,1,1.6,5.82A16.29,16.29,0,0,1,42.54,361h9a22.07,22.07,0,0,0,.93-6.23A19.08,19.08,0,0,0,49.69,344.78Z"/><path class="cls-3" d="M102.1,339.48a24.91,24.91,0,0,0-29.65,0,31.25,31.25,0,0,0-9.83,13.28A44.25,44.25,0,0,0,60.16,361h9a36.34,36.34,0,0,1,1.21-4.07,24.26,24.26,0,0,1,6.69-10.24,15.7,15.7,0,0,1,20.38,0,24.28,24.28,0,0,1,6.69,10.24,36.44,36.44,0,0,1,1.21,4.07h9a44.33,44.33,0,0,0-2.45-8.24A31.28,31.28,0,0,0,102.1,339.48Z"/><path class="cls-3" d="M164.38,339.48a24.91,24.91,0,0,0-29.65,0,31.25,31.25,0,0,0-9.83,13.28,44.25,44.25,0,0,0-2.46,8.24h9a36.28,36.28,0,0,1,1.21-4.07,24.26,24.26,0,0,1,6.69-10.24,15.7,15.7,0,0,1,20.38,0,24.28,24.28,0,0,1,6.69,10.24,36.44,36.44,0,0,1,1.21,4.07h9a44.33,44.33,0,0,0-2.45-8.24A31.28,31.28,0,0,0,164.38,339.48Z"/><polygon class="cls-3" points="226.66 344.57 226.66 336.24 190.22 336.24 186.99 361 195.28 361 197.43 344.57 226.66 344.57"/><path class="cls-2" d="M297.8,344.78a20.46,20.46,0,0,0-7.77-7.41,23.19,23.19,0,0,0-11.48-2.78,21.66,21.66,0,0,0-10.71,2.52,22.61,22.61,0,0,0-7.21,6.08,22.85,22.85,0,0,0-3.71,6.84l8,3.19a15.43,15.43,0,0,1,4.38-7.05,12.25,12.25,0,0,1,8.91-3.24,14.66,14.66,0,0,1,7.26,1.7,12,12,0,0,1,4.63,4.43,11.34,11.34,0,0,1,1.6,5.82,16.29,16.29,0,0,1-1.08,6.13h9a22.07,22.07,0,0,0,.93-6.23A19.07,19.07,0,0,0,297.8,344.78Z"/><path class="cls-3" d="M350.2,339.48a24.91,24.91,0,0,0-29.65,0,31.25,31.25,0,0,0-9.83,13.28,44.27,44.27,0,0,0-2.46,8.24h9a36.28,36.28,0,0,1,1.21-4.07,24.26,24.26,0,0,1,6.69-10.24,15.7,15.7,0,0,1,20.38,0,24.28,24.28,0,0,1,6.69,10.24,36.44,36.44,0,0,1,1.21,4.07h9a44.34,44.34,0,0,0-2.45-8.24A31.28,31.28,0,0,0,350.2,339.48Z"/><path class="cls-3" d="M412.49,339.48a24.91,24.91,0,0,0-29.65,0A31.25,31.25,0,0,0,373,352.76a44.27,44.27,0,0,0-2.46,8.24h9a36.34,36.34,0,0,1,1.21-4.07,24.26,24.26,0,0,1,6.69-10.24,15.7,15.7,0,0,1,20.38,0,24.28,24.28,0,0,1,6.69,10.24,36.39,36.39,0,0,1,1.21,4.07h9a44.32,44.32,0,0,0-2.45-8.24A31.27,31.27,0,0,0,412.49,339.48Z"/><polygon class="cls-2" points="464.38 336.24 447.62 361 456.61 361 464.79 349 465.2 349 465.2 361 473.85 361 473.85 336.24 464.38 336.24"/><path class="cls-3" d="M34.52,114.22a23.76,23.76,0,0,0,14.77,4.89,23.76,23.76,0,0,0,14.77-4.89,31.09,31.09,0,0,0,9.88-13.28,48.72,48.72,0,0,0,3.45-18.69,48.73,48.73,0,0,0-3.45-18.68,31.28,31.28,0,0,0-9.83-13.28,23.7,23.7,0,0,0-14.83-4.89,23.69,23.69,0,0,0-14.82,4.89,31.25,31.25,0,0,0-9.83,13.28,48.7,48.7,0,0,0-3.45,18.68,48.69,48.69,0,0,0,3.45,18.69A31.06,31.06,0,0,0,34.52,114.22ZM32.4,67.73A24.26,24.26,0,0,1,39.1,57.49a15.7,15.7,0,0,1,20.38,0,24.28,24.28,0,0,1,6.69,10.24,42.11,42.11,0,0,1,2.37,14.52,42.1,42.1,0,0,1-2.37,14.52A24.26,24.26,0,0,1,59.48,107a15,15,0,0,1-10.19,3.76A15,15,0,0,1,39.1,107,24.24,24.24,0,0,1,32.4,96.77,42.06,42.06,0,0,1,30,82.25,42.08,42.08,0,0,1,32.4,67.73Z"/><path class="cls-3" d="M159.45,117.46V102.33h9.06V94.09h-9.06V47H150L117,95.74v6.59H150.8v15.13ZM127,94.09l23.37-34.28h.41V94.09Z"/><path class="cls-3" d="M3.17,87.91Q14.49,76.38,14.49,65.57a19.08,19.08,0,0,0-2.78-10,20.47,20.47,0,0,0-7.77-7.41A21,21,0,0,0,0,46.48v9.32a11.85,11.85,0,0,1,4,4,11.34,11.34,0,0,1,1.6,5.82A15.13,15.13,0,0,1,3.79,73.4,38.34,38.34,0,0,1,0,78.52V91.09Z"/><rect class="cls-4" y="109.12" width="15.32" height="8.34"/><polygon class="cls-4" points="107.66 53.02 107.66 47.04 102.1 47.04 82.03 61.45 86.56 68.14 107.66 53.02"/><polygon class="cls-3" points="98.91 117.46 107.66 117.46 107.66 53.02 98.91 59.29 98.91 117.46"/><path class="cls-3" d="M260.19,113a23.81,23.81,0,0,0,28.41,0,29.9,29.9,0,0,0,9.5-12.77,46.85,46.85,0,0,0,3.32-18,46.86,46.86,0,0,0-3.32-18,30.08,30.08,0,0,0-9.45-12.77,24,24,0,0,0-28.51,0,30.05,30.05,0,0,0-9.45,12.77,46.83,46.83,0,0,0-3.32,18,46.82,46.82,0,0,0,3.32,18A29.87,29.87,0,0,0,260.19,113Zm-2-44.7a23.33,23.33,0,0,1,6.43-9.85,15.1,15.1,0,0,1,19.6,0,23.35,23.35,0,0,1,6.44,9.85,40.51,40.51,0,0,1,2.28,14,40.49,40.49,0,0,1-2.28,14,23.33,23.33,0,0,1-6.44,9.85,15.1,15.1,0,0,1-19.6,0,23.31,23.31,0,0,1-6.43-9.85,40.44,40.44,0,0,1-2.28-14A40.46,40.46,0,0,1,258.16,68.29Z"/><path class="cls-3" d="M373.31,109.07a16.14,16.14,0,0,1-7.31,1.7,14.12,14.12,0,0,1-9.32-3.29,17.79,17.79,0,0,1-5.61-9.27l-7.93,3.29a23,23,0,0,0,5.41,9.94,23.59,23.59,0,0,0,8.39,5.82,24.27,24.27,0,0,0,9.06,1.85,25.6,25.6,0,0,0,11.89-2.78,21.63,21.63,0,0,0,8.55-7.72,20.3,20.3,0,0,0,3.14-11.12,17,17,0,0,0-3.4-10.55,20.42,20.42,0,0,0-8.65-6.64v-.41a19.91,19.91,0,0,0,6.9-6,15.29,15.29,0,0,0,2.78-9.27,18,18,0,0,0-2.83-9.88,19.22,19.22,0,0,0-7.77-6.9,24.52,24.52,0,0,0-11.12-2.47q-8.34,0-13.64,4.48a22.49,22.49,0,0,0-7.16,10l8,3.4a15.83,15.83,0,0,1,4.38-6.8q3-2.78,8.39-2.78a14.14,14.14,0,0,1,9.16,3,9.67,9.67,0,0,1,3.71,7.93,10.73,10.73,0,0,1-3.81,8.6,14.1,14.1,0,0,1-9.47,3.24h-5.46v8.13h6.07a16.88,16.88,0,0,1,7.57,1.7A13.73,13.73,0,0,1,378.71,91a11.56,11.56,0,0,1,2,6.59,12,12,0,0,1-2,6.74A13.68,13.68,0,0,1,373.31,109.07Z"/><path class="cls-3" d="M453.05,87.91q11.32-11.53,11.32-22.34a19.07,19.07,0,0,0-2.78-10,20.46,20.46,0,0,0-7.77-7.41,23.19,23.19,0,0,0-11.48-2.78,21.66,21.66,0,0,0-10.71,2.52A22.61,22.61,0,0,0,424.43,54a22.85,22.85,0,0,0-3.71,6.84l8,3.19A15.43,15.43,0,0,1,433.13,57,12.25,12.25,0,0,1,442,53.73a14.66,14.66,0,0,1,7.26,1.7,12,12,0,0,1,4.63,4.43,11.34,11.34,0,0,1,1.6,5.82,15.12,15.12,0,0,1-1.85,7.72,56.56,56.56,0,0,1-7.1,8.85q-3.71,4-13.18,13.64t-12.66,12.82v8.75H465.2v-8.34H431.95Z"/><path class="cls-3" d="M489,107a24.25,24.25,0,0,1-6.69-10.24,42.06,42.06,0,0,1-2.37-14.52,42.08,42.08,0,0,1,2.37-14.52A24.26,24.26,0,0,1,489,57.49,15.91,15.91,0,0,1,491,56v-9.3a23.28,23.28,0,0,0-6.65,3.57,31.25,31.25,0,0,0-9.83,13.28,48.7,48.7,0,0,0-3.45,18.68,48.69,48.69,0,0,0,3.45,18.69,31.06,31.06,0,0,0,9.88,13.28,23.68,23.68,0,0,0,6.6,3.55v-9.27A15.88,15.88,0,0,1,489,107Z"/><path class="cls-2" d="M230,87.69q10.89-11.09,10.89-21.48a18.34,18.34,0,0,0-2.67-9.6,19.68,19.68,0,0,0-7.47-7.13,22.3,22.3,0,0,0-11-2.67,20.83,20.83,0,0,0-10.3,2.43,21.74,21.74,0,0,0-6.93,5.84A22,22,0,0,0,199,61.66l7.72,3.07a14.84,14.84,0,0,1,4.21-6.78,11.78,11.78,0,0,1,8.56-3.12,14.1,14.1,0,0,1,7,1.63,11.58,11.58,0,0,1,4.46,4.26,10.91,10.91,0,0,1,1.53,5.59,14.54,14.54,0,0,1-1.78,7.42,54.4,54.4,0,0,1-6.83,8.51q-3.56,3.86-12.67,13.12T199,107.69v.4h10.79Z"/><polygon class="cls-3" points="241.73 108.09 209.75 108.09 198.96 108.09 198.96 116.11 241.73 116.11 241.73 108.09"/><polygon class="cls-3" points="330.53 54.14 330.53 48.39 325.19 48.39 305.88 62.25 310.24 68.69 330.53 54.14"/><polygon class="cls-2" points="322.12 116.11 330.53 116.11 330.53 54.14 322.12 60.17 322.12 116.11"/><polygon class="cls-6" points="229.09 174.7 251.28 196.89 257.08 191.1 234.88 168.9 229.09 174.7"/><polygon class="cls-2" points="210.29 205.09 234.88 180.5 229.09 174.7 204.51 199.31 210.29 205.09"/><polygon class="cls-4" points="286.49 155.91 261.89 155.91 262.69 156.7 271.28 165.29 271.28 165.29 277.1 171.11 286.49 180.5 286.49 155.91"/><polygon class="cls-5" points="251.28 185.29 234.88 168.9 257.08 191.1 277.1 171.11 271.28 165.29 251.28 185.29"/><path class="cls-3" d="M51.79,207.37H18.53l21.1-21.21Q51,174.63,51,163.82a19.08,19.08,0,0,0-2.78-10,20.47,20.47,0,0,0-7.77-7.41,23.19,23.19,0,0,0-11.48-2.78,21.66,21.66,0,0,0-10.71,2.52A22.61,22.61,0,0,0,11,152.24a22.85,22.85,0,0,0-3.71,6.84l8,3.19a15.43,15.43,0,0,1,4.38-7.05A12.25,12.25,0,0,1,28.62,152a14.66,14.66,0,0,1,7.26,1.7,12,12,0,0,1,4.63,4.43,11.34,11.34,0,0,1,1.6,5.82,15.12,15.12,0,0,1-1.85,7.72,56.55,56.55,0,0,1-7.1,8.85q-3.71,4-13.18,13.64T7.31,207v8.75H51.79Z"/><path class="cls-3" d="M347.71,186.16Q359,174.63,359,163.82a19.08,19.08,0,0,0-2.78-10,20.47,20.47,0,0,0-7.77-7.41A23.19,23.19,0,0,0,337,143.64a21.66,21.66,0,0,0-10.71,2.52,22.61,22.61,0,0,0-7.21,6.08,22.87,22.87,0,0,0-3.71,6.84l8,3.19a15.43,15.43,0,0,1,4.38-7.05,12.25,12.25,0,0,1,8.91-3.24,14.66,14.66,0,0,1,7.26,1.7,12,12,0,0,1,4.63,4.43,11.34,11.34,0,0,1,1.6,5.82,15.12,15.12,0,0,1-1.85,7.72,56.59,56.59,0,0,1-7.1,8.85q-3.71,4-13.18,13.64T315.38,207v.41H326.6Z"/><polygon class="cls-6" points="359.86 207.37 326.6 207.37 315.38 207.37 315.38 215.71 359.86 215.71 359.86 207.37"/><path class="cls-3" d="M418.49,199.18a52.33,52.33,0,0,0,0-37.37,31.28,31.28,0,0,0-9.83-13.28,24.91,24.91,0,0,0-29.65,0,31.25,31.25,0,0,0-9.83,13.28,52.34,52.34,0,0,0,0,37.37,31.06,31.06,0,0,0,9.88,13.28,24.76,24.76,0,0,0,29.55,0A31.09,31.09,0,0,0,418.49,199.18ZM404,205.26a15.7,15.7,0,0,1-20.38,0A24.24,24.24,0,0,1,376.94,195a45.68,45.68,0,0,1,0-29,24.26,24.26,0,0,1,6.69-10.24,15.7,15.7,0,0,1,20.38,0A24.28,24.28,0,0,1,410.71,166a45.68,45.68,0,0,1,0,29A24.26,24.26,0,0,1,404,205.26Z"/><polygon class="cls-3" points="452.2 215.71 452.2 145.29 446.64 145.29 426.57 159.7 431.1 166.4 443.45 157.54 443.45 215.71 452.2 215.71"/><path class="cls-6" d="M490.09,209a15,15,0,0,1-10.19-3.76A24.25,24.25,0,0,1,473.2,195a42.06,42.06,0,0,1-2.37-14.52H462a48.69,48.69,0,0,0,3.45,18.69,31.07,31.07,0,0,0,9.88,13.28,23.76,23.76,0,0,0,14.77,4.89c.31,0,.61,0,.91,0V209C490.7,209,490.4,209,490.09,209Z"/><path class="cls-3" d="M475.26,148.53a31.25,31.25,0,0,0-9.83,13.28A48.7,48.7,0,0,0,462,180.5h8.85A42.08,42.08,0,0,1,473.2,166a24.26,24.26,0,0,1,6.69-10.24A15,15,0,0,1,490.09,152c.31,0,.61,0,.91,0v-8.34c-.3,0-.6,0-.91,0A23.69,23.69,0,0,0,475.26,148.53Z"/><polygon class="cls-3" points="170.38 157.54 170.38 215.71 179.13 215.71 179.13 151.27 158.03 166.4 170.38 157.54"/><polygon class="cls-3" points="179.13 151.27 179.13 145.29 173.58 145.29 153.5 159.7 158.03 166.4 179.13 151.27"/><polygon class="cls-5" points="138.57 145.29 118.5 159.7 123.03 166.4 144.13 151.27 144.13 145.29 138.57 145.29"/><polygon class="cls-3" points="135.38 215.71 144.13 215.71 144.13 151.27 135.38 157.54 135.38 215.71"/><path class="cls-3" d="M66.51,180.5A42.08,42.08,0,0,1,68.87,166a24.26,24.26,0,0,1,6.69-10.24,15.7,15.7,0,0,1,20.38,0A24.28,24.28,0,0,1,102.64,166,42.11,42.11,0,0,1,105,180.5h8.85a48.72,48.72,0,0,0-3.45-18.68,31.28,31.28,0,0,0-9.83-13.28,24.91,24.91,0,0,0-29.65,0,31.25,31.25,0,0,0-9.83,13.28,48.7,48.7,0,0,0-3.45,18.68h8.85Z"/><path class="cls-5" d="M113.87,180.5H105A42.1,42.1,0,0,1,102.64,195,24.26,24.26,0,0,1,96,205.26a15.7,15.7,0,0,1-20.38,0A24.25,24.25,0,0,1,68.87,195a42.06,42.06,0,0,1-2.37-14.52H57.65a48.69,48.69,0,0,0,3.45,18.69A31.06,31.06,0,0,0,71,212.47a24.76,24.76,0,0,0,29.55,0,31.09,31.09,0,0,0,9.88-13.28A48.72,48.72,0,0,0,113.87,180.5Z"/><path class="cls-3" d="M21.52,295.16A48.72,48.72,0,0,0,25,276.47a48.73,48.73,0,0,0-3.45-18.68,31.28,31.28,0,0,0-9.83-13.28A23.27,23.27,0,0,0,0,239.81v8.44a14.87,14.87,0,0,1,7.06,3.46A24.28,24.28,0,0,1,13.75,262a42.11,42.11,0,0,1,2.37,14.52A42.09,42.09,0,0,1,13.75,291a24.26,24.26,0,0,1-6.69,10.24A14.85,14.85,0,0,1,0,304.69v8.44a23.45,23.45,0,0,0,11.64-4.69A31.09,31.09,0,0,0,21.52,295.16Z"/><path class="cls-3" d="M66.46,274.82v-.41a20.81,20.81,0,0,0,6.64-6.54,15.43,15.43,0,0,0,2.63-8.49,19,19,0,0,0-10.35-17.19,23.2,23.2,0,0,0-11-2.57,23.42,23.42,0,0,0-11.07,2.57A19,19,0,0,0,33,259.38a15.43,15.43,0,0,0,2.63,8.49,20.45,20.45,0,0,0,6.74,6.54v.41a22.54,22.54,0,0,0-8.49,7.05,17.34,17.34,0,0,0-3.24,10.45A19.25,19.25,0,0,0,33.72,303a21.56,21.56,0,0,0,8.54,7.57,26.35,26.35,0,0,0,12.15,2.78,26.14,26.14,0,0,0,12-2.78,22,22,0,0,0,8.6-7.57,19,19,0,0,0,3.14-10.66A17.34,17.34,0,0,0,75,281.88,22.54,22.54,0,0,0,66.46,274.82ZM41.86,259.18A10.22,10.22,0,0,1,45.41,251a13.38,13.38,0,0,1,9-3,13.23,13.23,0,0,1,8.91,3,10.22,10.22,0,0,1,3.55,8.19,10.76,10.76,0,0,1-3.5,8.34,12.79,12.79,0,0,1-9,3.19,13,13,0,0,1-9-3.19A10.68,10.68,0,0,1,41.86,259.18ZM65,301.34A15.68,15.68,0,0,1,54.42,305a15.87,15.87,0,0,1-10.6-3.65,11.88,11.88,0,0,1-4.32-9.52,11.66,11.66,0,0,1,4.32-9.32,15.87,15.87,0,0,1,10.6-3.66A15.68,15.68,0,0,1,65,282.5a11.72,11.72,0,0,1,4.27,9.32A11.94,11.94,0,0,1,65,301.34Z"/><path class="cls-3" d="M199.4,244.51a24.91,24.91,0,0,0-29.65,0,31.25,31.25,0,0,0-9.83,13.28,52.34,52.34,0,0,0,0,37.37,31.06,31.06,0,0,0,9.88,13.28,24.76,24.76,0,0,0,29.55,0,31.09,31.09,0,0,0,9.88-13.28,52.34,52.34,0,0,0,0-37.37A31.28,31.28,0,0,0,199.4,244.51ZM201.46,291a24.26,24.26,0,0,1-6.69,10.24,15.7,15.7,0,0,1-20.38,0A24.24,24.24,0,0,1,167.69,291a45.67,45.67,0,0,1,0-29,24.26,24.26,0,0,1,6.69-10.24,15.7,15.7,0,0,1,20.38,0A24.28,24.28,0,0,1,201.46,262a45.67,45.67,0,0,1,0,29Z"/><path class="cls-3" d="M261.69,244.51a24.91,24.91,0,0,0-29.65,0,31.25,31.25,0,0,0-9.83,13.28,52.34,52.34,0,0,0,0,37.37,31.06,31.06,0,0,0,9.88,13.28,24.76,24.76,0,0,0,29.55,0,31.09,31.09,0,0,0,9.88-13.28,52.34,52.34,0,0,0,0-37.37A31.27,31.27,0,0,0,261.69,244.51ZM263.75,291a24.27,24.27,0,0,1-6.69,10.24,15.7,15.7,0,0,1-20.39,0A24.25,24.25,0,0,1,230,291a45.67,45.67,0,0,1,0-29,24.27,24.27,0,0,1,6.69-10.24,15.7,15.7,0,0,1,20.39,0A24.29,24.29,0,0,1,263.75,262a45.67,45.67,0,0,1,0,29Z"/><path class="cls-3" d="M448.16,291a24.26,24.26,0,0,1-6.69,10.24,15.7,15.7,0,0,1-20.38,0A24.24,24.24,0,0,1,414.39,291,42.06,42.06,0,0,1,412,276.47h-8.85a48.69,48.69,0,0,0,3.45,18.69,31.06,31.06,0,0,0,9.88,13.28,24.76,24.76,0,0,0,29.55,0,31.09,31.09,0,0,0,9.88-13.28,48.73,48.73,0,0,0,3.45-18.69h-8.85A42.1,42.1,0,0,1,448.16,291Z"/><path class="cls-3" d="M446.1,244.51a24.91,24.91,0,0,0-29.65,0,31.25,31.25,0,0,0-9.83,13.28,48.7,48.7,0,0,0-3.45,18.68H412A42.08,42.08,0,0,1,414.39,262a24.26,24.26,0,0,1,6.69-10.24,15.7,15.7,0,0,1,20.38,0A24.28,24.28,0,0,1,448.16,262a42.11,42.11,0,0,1,2.37,14.52h8.85a48.73,48.73,0,0,0-3.45-18.68A31.28,31.28,0,0,0,446.1,244.51Z"/><path class="cls-3" d="M468.9,257.79a48.7,48.7,0,0,0-3.45,18.68h8.85A42.08,42.08,0,0,1,476.68,262a24.26,24.26,0,0,1,6.69-10.24,14.86,14.86,0,0,1,7.63-3.56v-8.41a23.32,23.32,0,0,0-12.26,4.76A31.25,31.25,0,0,0,468.9,257.79Z"/><path class="cls-3" d="M483.37,301.23A24.25,24.25,0,0,1,476.68,291a42.06,42.06,0,0,1-2.37-14.52h-8.85a48.69,48.69,0,0,0,3.45,18.69,31.07,31.07,0,0,0,9.88,13.28A23.48,23.48,0,0,0,491,313.2v-8.4A14.84,14.84,0,0,1,483.37,301.23Z"/><polygon class="cls-5" points="352.83 303.34 352.83 311.68 397.3 311.68 397.3 303.34 364.05 303.34 352.83 303.34"/><path class="cls-3" d="M385.16,282.13q11.32-11.53,11.32-22.34a19.08,19.08,0,0,0-2.78-10,20.47,20.47,0,0,0-7.77-7.41,23.19,23.19,0,0,0-11.48-2.78,21.66,21.66,0,0,0-10.71,2.52,22.61,22.61,0,0,0-7.21,6.08,22.85,22.85,0,0,0-3.71,6.84l8,3.19a15.43,15.43,0,0,1,4.38-7.05,12.25,12.25,0,0,1,8.91-3.24,14.66,14.66,0,0,1,7.26,1.7,12,12,0,0,1,4.63,4.43,11.34,11.34,0,0,1,1.6,5.82,15.12,15.12,0,0,1-1.85,7.72,56.56,56.56,0,0,1-7.1,8.85q-3.71,4-13.18,13.64t-12.66,12.82v.41h11.22Z"/><polygon class="cls-4" points="279.6 249.6 315.74 249.6 324.8 249.6 324.8 241.26 279.6 241.26 279.6 249.6"/><polygon class="cls-3" points="282.89 309.31 290.62 313.33 324.8 250.22 324.8 249.6 315.74 249.6 282.89 309.31"/><path class="cls-3" d="M138.45,282.13q11.32-11.53,11.32-22.34a19.08,19.08,0,0,0-2.78-10,20.47,20.47,0,0,0-7.77-7.41,23.2,23.2,0,0,0-11.48-2.78A21.66,21.66,0,0,0,117,242.14a22.6,22.6,0,0,0-7.21,6.08,22.85,22.85,0,0,0-3.71,6.84l8,3.19a15.43,15.43,0,0,1,4.38-7.05,12.25,12.25,0,0,1,8.91-3.24,14.66,14.66,0,0,1,7.26,1.7,12,12,0,0,1,4.63,4.43,11.34,11.34,0,0,1,1.6,5.82,15.12,15.12,0,0,1-1.85,7.72,56.59,56.59,0,0,1-7.1,8.85q-3.71,4-13.18,13.64t-12.66,12.82v.41h11.22Z"/><polygon class="cls-4" points="106.13 303.34 106.13 311.68 150.6 311.68 150.6 303.34 117.35 303.34 106.13 303.34"/>
</svg>
